{"glyphs":{":":{"x_min":0,"x_max":275,"ha":275,"o":"m 85 -12 q 57 -12 38 6 q 19 25 19 53 q 19 82 38 100 q 57 119 85 119 q 113 119 132 100 q 151 81 151 53 q 151 26 132 7 q 113 -12 85 -12 z m 148 340 q 120 340 101 358 q 82 376 82 404 q 82 433 101 451 q 120 470 148 470 q 176 470 195 451 q 214 432 214 404 q 214 377 195 358 q 176 340 148 340 z"},"$":{"x_min":0,"x_max":519,"ha":519,"o":"m 238 416 l 269 610 q 265 610 260 611 q 256 611 247 611 q 202 611 175 587 q 148 564 148 524 q 148 489 171 462 q 194 434 238 416 z m 224 63 q 227 62 231 62 q 235 62 243 62 q 300 62 336 96 q 372 130 372 183 q 372 225 345 259 q 318 292 265 315 z m 154 -93 l 170 1 q 144 11 122 27 q 100 42 81 64 l 68 0 l 8 0 l 39 208 l 95 208 q 100 148 120 116 q 141 83 181 71 l 224 333 q 142 374 105 418 q 68 462 68 518 q 68 588 119 631 q 170 675 253 675 q 264 675 270 675 q 275 674 280 674 l 291 742 l 335 742 l 323 667 q 351 658 371 644 q 392 629 407 609 l 416 668 l 477 668 l 449 469 l 397 469 q 396 522 374 556 q 353 589 311 602 l 277 397 q 367 358 411 307 q 455 255 455 187 q 455 103 395 47 q 335 -10 245 -10 q 239 -10 232 -10 q 226 -9 212 -8 l 197 -93 z"},"?":{"x_min":0,"x_max":500,"ha":500,"o":"m 180 -12 q 152 -12 133 6 q 114 25 114 53 q 114 82 133 100 q 151 119 180 119 q 208 119 227 100 q 246 81 246 53 q 246 26 227 7 q 208 -12 180 -12 z m 156 193 l 191 406 l 230 406 q 291 406 332 443 q 373 481 373 537 q 373 587 342 621 q 311 654 263 654 q 212 654 181 621 q 149 589 147 535 l 65 535 q 74 627 126 680 q 179 734 259 734 q 347 734 402 682 q 456 629 456 545 q 456 453 403 394 q 349 335 261 331 l 238 193 z"},"<":{"x_min":0,"x_max":833,"ha":833,"o":"m 704 497 l 216 298 l 704 100 l 704 37 l 129 273 l 129 323 l 704 559 z"},"'":{"x_min":0,"x_max":149,"ha":149,"o":"m 103 700 l 103 430 l 46 430 l 46 700 z"},"=":{"x_min":0,"x_max":833,"ha":833,"o":"m 709 233 l 709 176 l 124 176 l 124 233 z m 709 420 l 709 363 l 124 363 l 124 420 z"},"a":{"x_min":0,"x_max":604,"ha":604,"o":"m 92 205 q 92 142 131 102 q 171 62 233 62 q 307 62 358 117 q 409 172 409 252 q 409 315 368 356 q 327 398 265 398 q 191 398 142 343 q 92 288 92 205 z m 456 68 l 527 68 l 515 0 l 359 0 l 368 47 q 332 18 292 3 q 252 -12 209 -12 q 118 -12 61 49 q 3 110 3 206 q 3 258 22 307 q 42 355 78 393 q 114 430 159 450 q 204 469 254 469 q 309 469 352 446 q 396 423 427 379 l 441 459 l 597 459 l 585 391 l 513 391 z"},"L":{"x_min":0,"x_max":545,"ha":545,"o":"m -36 0 l -24 71 l 54 71 l 156 649 l 77 649 l 90 720 l 344 720 l 331 649 l 250 649 l 148 71 l 398 71 l 429 205 l 512 205 l 465 0 z"},"3":{"x_min":0,"x_max":519,"ha":519,"o":"m 24 228 l 105 228 q 105 227 105 225 q 103 204 103 195 q 103 130 134 95 q 165 60 223 60 q 283 60 322 100 q 361 139 361 200 q 361 262 323 297 q 284 333 215 334 l 226 395 q 240 394 246 393 q 253 393 259 393 q 329 393 369 429 q 409 466 409 529 q 409 579 378 610 q 346 641 297 641 q 239 641 207 606 q 175 572 168 502 l 88 502 q 93 600 150 657 q 206 715 296 715 q 385 715 440 663 q 495 611 495 528 q 495 465 464 419 q 432 373 373 348 q 411 318 430 282 q 448 245 448 200 q 448 107 384 46 q 320 -14 221 -14 q 132 -14 76 40 q 20 94 20 180 q 20 193 21 205 q 22 216 24 228 z"},";":{"x_min":0,"x_max":275,"ha":275,"o":"m 137 340 q 108 340 90 358 q 71 376 71 404 q 71 433 90 451 q 108 470 137 470 q 165 470 184 451 q 203 432 203 404 q 203 377 184 358 q 165 340 137 340 z m 59 121 l 149 121 l 58 -88 l -25 -88 z"},"J":{"x_min":0,"x_max":304,"ha":304,"o":"m 147 71 q 130 -27 93 -68 q 56 -109 -15 -109 q -28 -109 -44 -107 q -60 -104 -78 -100 l -63 -14 q -52 -17 -42 -18 q -31 -19 -21 -19 q 12 -19 28 -1 q 44 18 54 71 l 155 649 l 77 649 l 89 720 l 340 720 l 329 649 l 250 649 z"},"V":{"x_min":0,"x_max":576,"ha":576,"o":"m 190 -14 l 106 649 l 35 649 l 48 720 l 276 720 l 263 649 l 195 649 l 250 155 l 490 649 l 419 649 l 431 720 l 652 720 l 640 649 l 582 649 l 253 -14 z"},"\"":{"x_min":0,"x_max":288,"ha":288,"o":"m 242 700 l 242 430 l 184 430 l 184 700 z m 103 700 l 103 430 l 46 430 l 46 700 z"},"7":{"x_min":0,"x_max":519,"ha":519,"o":"m 221 0 l 131 0 l 428 626 l 191 626 l 169 497 l 88 497 l 124 701 l 531 701 l 518 626 z"},"S":{"x_min":0,"x_max":602,"ha":602,"o":"m -5 0 l 38 251 l 114 251 q 129 166 178 118 q 228 70 301 70 q 367 70 408 104 q 449 139 449 195 q 449 235 422 261 q 396 287 312 320 l 231 352 q 154 382 116 429 q 77 476 77 540 q 77 624 141 679 q 205 734 305 734 q 364 734 409 710 q 454 686 479 640 l 490 718 l 577 718 l 539 510 l 462 510 q 444 583 404 620 q 364 656 300 656 q 243 656 207 626 q 170 596 170 550 q 170 479 312 421 l 326 416 l 407 383 q 475 355 510 309 q 545 262 545 200 q 545 106 477 46 q 408 -14 301 -14 q 230 -14 178 13 q 127 41 96 96 l 81 0 z"},"}":{"x_min":0,"x_max":500,"ha":500,"o":"m 275 543 l 275 424 q 275 350 302 319 q 329 289 395 289 q 398 289 406 290 q 413 290 417 290 l 417 228 q 413 228 406 229 q 398 229 395 229 q 329 229 302 199 q 275 168 275 94 l 275 -24 q 275 -99 264 -130 q 253 -161 227 -178 q 208 -191 179 -197 q 151 -202 101 -202 l 81 -202 l 81 -141 q 85 -141 92 -142 q 100 -142 103 -142 q 162 -142 183 -119 q 204 -96 204 -22 l 204 95 q 204 176 225 210 q 247 244 301 259 q 247 274 225 308 q 204 342 204 423 l 204 541 q 204 614 183 637 q 161 660 100 660 l 81 660 l 81 721 l 98 721 q 147 721 177 715 q 207 709 227 696 q 253 679 264 648 q 275 617 275 543 z"},"Z":{"x_min":0,"x_max":537,"ha":537,"o":"m 426 655 l 169 655 l 146 527 l 62 527 l 96 720 l 550 720 l 541 664 l 107 65 l 376 65 l 405 215 l 488 215 l 449 0 l -15 0 l -4 62 z"},"x":{"x_min":0,"x_max":537,"ha":537,"o":"m -31 0 l -19 68 l 32 68 l 198 234 l 85 390 l 22 390 l 34 458 l 240 458 l 228 390 l 175 390 l 250 280 l 356 390 l 300 390 l 312 458 l 514 458 l 502 390 l 447 390 l 289 235 l 412 68 l 472 68 l 460 0 l 244 0 l 256 68 l 319 68 l 237 188 l 123 68 l 182 68 l 170 0 z"},")":{"x_min":0,"x_max":278,"ha":278,"o":"m -48 -73 q 52 46 100 168 q 147 290 147 428 q 147 498 133 570 q 119 642 91 711 l 162 734 q 196 664 214 586 q 231 509 231 429 q 231 276 177 141 q 122 7 15 -105 z"},"&":{"x_min":0,"x_max":745,"ha":745,"o":"m 397 156 l 244 349 q 171 308 138 269 q 105 230 105 185 q 105 140 142 106 q 179 73 231 73 q 269 73 310 94 q 352 115 397 156 z m 270 456 q 331 495 357 527 q 383 559 383 592 q 383 625 359 648 q 334 670 298 670 q 260 670 235 646 q 211 621 211 583 q 211 555 226 523 q 240 492 270 456 z m 681 71 l 668 0 l 521 0 l 444 100 q 385 42 328 14 q 271 -14 212 -14 q 124 -14 68 40 q 11 94 11 177 q 11 247 56 304 q 102 362 194 411 q 161 457 146 496 q 130 535 130 570 q 130 642 178 688 q 227 734 303 734 q 371 734 416 691 q 462 648 462 584 q 462 536 426 489 q 391 441 319 396 l 460 222 q 498 270 524 314 q 549 359 563 402 l 487 402 l 500 473 l 715 473 l 701 402 l 644 402 q 617 335 583 275 q 548 216 505 161 l 577 71 z"},"_":{"x_min":0,"x_max":500,"ha":500,"o":"m 500 -178 l 500 -236 l 0 -236 l 0 -178 z"},"v":{"x_min":0,"x_max":534,"ha":534,"o":"m 161 0 l 62 390 l -4 390 l 8 458 l 227 458 l 215 390 l 142 390 l 212 106 l 378 390 l 305 390 l 317 458 l 533 458 l 521 390 l 461 390 l 220 0 z"},"O":{"x_min":0,"x_max":809,"ha":809,"o":"m 381 -14 q 313 -14 254 6 q 196 25 148 64 q 91 110 61 177 q 31 245 31 325 q 31 410 57 482 q 83 554 135 609 q 192 670 268 702 q 343 734 429 734 q 583 734 681 640 q 778 546 778 396 q 778 312 751 239 q 724 166 673 111 q 618 51 542 18 q 466 -14 381 -14 z m 127 333 q 127 215 198 141 q 268 67 379 67 q 430 67 475 83 q 521 99 561 131 q 618 176 650 243 q 681 311 681 388 q 681 505 610 579 q 540 653 427 653 q 377 653 332 637 q 286 621 246 589 q 189 544 158 478 q 127 411 127 333 z"},"(":{"x_min":0,"x_max":278,"ha":278,"o":"m 302 702 q 202 583 154 461 q 107 339 107 201 q 107 129 121 58 q 135 -14 162 -82 l 92 -105 q 58 -35 41 42 q 23 120 23 200 q 23 353 77 488 q 132 623 239 734 z"},"C":{"x_min":0,"x_max":736,"ha":736,"o":"m 682 157 q 631 72 555 29 q 479 -14 380 -14 q 312 -14 253 5 q 194 25 148 63 q 92 109 61 178 q 30 247 30 326 q 30 411 56 483 q 83 556 135 612 q 191 672 265 705 q 339 737 422 737 q 494 737 549 714 q 604 690 639 645 l 654 720 l 733 720 l 694 478 l 627 478 q 619 563 567 609 q 515 655 426 655 q 375 655 329 639 q 282 624 244 594 q 188 550 157 482 q 126 414 126 335 q 126 215 197 141 q 269 67 384 67 q 457 67 512 98 q 567 128 607 191 z"},"W":{"x_min":0,"x_max":882,"ha":882,"o":"m 179 -14 l 100 649 l 35 649 l 48 720 l 275 720 l 263 649 l 190 649 l 239 175 l 454 649 l 372 649 l 384 720 l 632 720 l 620 649 l 539 649 l 583 173 l 804 649 l 731 649 l 743 720 l 962 720 l 950 649 l 892 649 l 576 -14 l 523 -14 l 476 537 l 229 -14 z"},"A":{"x_min":0,"x_max":708,"ha":708,"o":"m 228 323 l 441 323 l 384 636 z m 102 71 l 176 71 l 164 0 l -56 0 l -43 71 l 16 71 l 306 649 l 236 649 l 249 720 l 550 720 l 537 649 l 465 649 l 583 71 l 653 71 l 641 0 l 399 0 l 411 71 l 492 71 l 456 252 l 193 252 z"},"f":{"x_min":0,"x_max":306,"ha":306,"o":"m -29 0 l -17 68 l 51 68 l 108 390 l 29 390 l 41 458 l 120 458 l 139 566 q 154 648 189 684 q 225 720 292 720 q 302 720 314 719 q 325 718 337 717 l 325 648 q 320 649 313 649 q 307 650 292 650 q 262 650 247 634 q 232 618 225 579 l 204 458 l 293 458 l 281 390 l 192 390 l 135 68 l 217 68 l 205 0 z"},"Q":{"x_min":0,"x_max":809,"ha":809,"o":"m 472 81 q 571 119 626 200 q 681 281 681 388 q 681 505 610 579 q 540 653 427 653 q 377 653 332 637 q 286 621 246 589 q 189 544 158 478 q 127 411 127 333 q 127 212 198 140 q 270 68 393 65 l 362 157 l 437 182 z m 497 1 l 522 -64 l 647 -64 l 647 -144 l 463 -144 l 419 -14 q 415 -14 406 -15 q 397 -15 393 -15 q 229 -15 130 78 q 31 172 31 325 q 31 410 57 482 q 83 554 135 609 q 192 670 268 702 q 343 734 429 734 q 583 734 680 640 q 777 546 777 396 q 777 252 703 148 q 630 44 497 1 z"},"w":{"x_min":0,"x_max":815,"ha":815,"o":"m 141 0 l 63 390 l 3 390 l 15 458 l 225 458 l 213 390 l 146 390 l 194 120 l 357 390 l 293 390 l 305 458 l 520 458 l 508 390 l 437 390 l 497 120 l 656 390 l 596 390 l 608 458 l 807 458 l 795 390 l 738 390 l 502 0 l 447 0 l 382 303 l 197 0 z"},"-":{"x_min":0,"x_max":308,"ha":308,"o":"m 7 194 l 21 272 l 259 272 l 246 194 z"},"E":{"x_min":0,"x_max":564,"ha":564,"o":"m -36 0 l -24 71 l 54 71 l 156 649 l 77 649 l 90 720 l 575 720 l 548 529 l 468 529 l 485 649 l 250 649 l 210 417 l 407 417 l 395 347 l 198 347 l 148 71 l 398 71 l 429 205 l 512 205 l 465 0 z"},"s":{"x_min":0,"x_max":446,"ha":446,"o":"m -18 0 l 9 156 l 72 156 q 89 106 124 81 q 159 56 210 56 q 247 56 270 74 q 292 91 292 120 q 292 144 274 160 q 257 177 214 192 l 157 213 q 100 234 71 267 q 43 300 43 347 q 43 400 84 435 q 126 470 190 470 q 237 470 273 451 q 309 433 329 397 l 337 458 l 403 458 l 378 318 l 317 318 q 304 358 272 381 q 241 404 200 404 q 166 404 146 389 q 125 374 125 350 q 125 309 218 273 l 222 272 l 281 249 q 325 232 349 200 q 373 167 373 125 q 373 64 328 26 q 283 -11 209 -11 q 155 -11 117 9 q 80 29 57 69 l 47 0 z"},">":{"x_min":0,"x_max":833,"ha":833,"o":"m 704 323 l 704 273 l 129 37 l 129 100 l 617 298 l 129 497 l 129 559 z"},"l":{"x_min":0,"x_max":278,"ha":278,"o":"m 130 68 l 204 68 l 193 0 l -37 0 l -25 68 l 46 68 l 149 652 l 78 652 l 90 720 l 245 720 z"},"8":{"x_min":0,"x_max":519,"ha":519,"o":"m 109 191 q 109 134 143 98 q 178 63 233 63 q 292 63 327 101 q 362 139 362 202 q 362 256 327 292 q 292 328 241 328 q 187 328 148 288 q 109 248 109 191 z m 166 521 q 166 466 200 431 q 235 396 288 396 q 340 396 374 432 q 408 468 408 525 q 408 579 374 613 q 340 647 287 647 q 234 647 200 611 q 166 576 166 521 z m 152 376 q 116 405 98 440 q 80 476 80 519 q 80 604 140 660 q 201 716 292 716 q 381 716 438 662 q 494 609 494 525 q 494 462 462 415 q 429 368 367 343 q 407 317 428 280 q 448 242 448 194 q 448 104 388 45 q 328 -14 236 -14 q 143 -14 83 42 q 24 99 24 188 q 24 251 57 301 q 91 350 152 376 z"},"\\":{"x_min":0,"x_max":354,"ha":354,"o":"m 238 -93 l 182 -93 l 125 734 l 181 734 z"},"e":{"x_min":0,"x_max":536,"ha":536,"o":"m 97 274 l 409 274 q 407 333 369 368 q 331 403 268 403 q 207 403 162 369 q 116 334 97 274 z m 449 91 q 413 39 361 13 q 308 -12 236 -12 q 134 -12 68 51 q 3 113 3 209 q 3 322 79 396 q 156 470 274 470 q 370 470 429 412 q 488 354 488 259 q 488 249 487 236 q 486 224 485 210 l 91 210 l 91 202 q 91 136 132 97 q 174 58 243 58 q 291 58 328 76 q 366 93 394 129 z"},"b":{"x_min":0,"x_max":610,"ha":610,"o":"m 469 253 q 469 316 430 356 q 390 396 328 396 q 254 396 203 341 q 152 286 152 206 q 152 142 193 101 q 234 60 300 60 q 372 60 421 115 q 469 170 469 253 z m 121 0 l -35 0 l -23 68 l 47 68 l 150 652 l 79 652 l 91 720 l 247 720 l 191 405 q 226 437 266 453 q 307 469 352 469 q 443 469 500 409 q 557 349 557 253 q 557 141 486 65 q 416 -11 312 -11 q 255 -11 210 12 q 165 35 134 79 z"},"%":{"x_min":0,"x_max":919,"ha":919,"o":"m 688 70 q 730 70 759 99 q 788 127 788 170 q 788 213 759 242 q 730 271 688 271 q 646 271 618 242 q 589 212 589 170 q 589 128 617 99 q 646 70 688 70 z m 859 170 q 859 99 809 49 q 759 0 688 0 q 617 0 567 49 q 518 99 518 170 q 518 242 567 291 q 616 340 688 340 q 760 340 809 291 q 859 242 859 170 z m 662 715 l 724 715 l 255 -14 l 196 -14 z m 401 531 q 401 459 352 410 q 302 361 231 361 q 160 361 110 410 q 60 460 60 531 q 60 603 110 652 q 159 701 231 701 q 303 701 352 652 q 401 603 401 531 z m 231 431 q 273 431 302 460 q 330 488 330 531 q 330 574 302 603 q 273 632 231 632 q 189 632 160 603 q 131 573 131 531 q 131 489 160 460 q 189 431 231 431 z"},"m":{"x_min":0,"x_max":854,"ha":854,"o":"m 422 68 l 487 68 l 476 0 l 263 0 l 274 68 l 339 68 l 380 297 q 382 309 384 321 q 385 333 385 343 q 385 370 369 385 q 354 400 325 400 q 294 400 258 384 q 221 368 181 337 l 132 68 l 203 68 l 191 0 l -33 0 l -21 68 l 49 68 l 106 390 l 36 390 l 48 458 l 201 458 l 192 407 q 233 438 273 454 q 314 470 353 470 q 396 470 424 452 q 451 434 464 398 q 514 435 557 453 q 601 470 643 470 q 698 470 729 441 q 759 411 759 357 q 759 349 758 336 q 756 324 752 298 l 712 68 l 777 68 l 766 0 l 553 0 l 564 68 l 628 68 l 670 297 q 672 309 674 321 q 675 333 675 343 q 675 370 659 385 q 644 400 615 400 q 583 400 545 383 q 507 366 469 334 z"},"#":{"x_min":0,"x_max":769,"ha":769,"o":"m 475 421 l 346 421 l 300 288 l 428 288 z m 450 711 l 369 481 l 496 481 l 578 711 l 648 711 l 568 481 l 718 481 l 697 421 l 545 421 l 499 288 l 660 288 l 639 228 l 477 228 l 396 -1 l 325 -1 l 407 228 l 278 228 l 196 -1 l 126 -1 l 207 228 l 51 228 l 72 288 l 228 288 l 275 421 l 108 421 l 129 481 l 297 481 l 379 711 z"},",":{"x_min":0,"x_max":259,"ha":259,"o":"m 59 121 l 149 121 l 58 -88 l -25 -88 z"},"n":{"x_min":0,"x_max":588,"ha":588,"o":"m 403 297 q 406 312 407 323 q 409 335 409 343 q 409 370 392 385 q 375 400 343 400 q 309 400 269 385 q 229 369 182 337 l 134 68 l 205 68 l 193 0 l -33 0 l -21 68 l 49 68 l 106 390 l 36 390 l 48 458 l 203 458 l 194 407 q 239 438 283 454 q 326 470 369 470 q 429 470 462 440 q 495 411 495 357 q 495 346 493 330 q 491 315 488 298 l 447 68 l 518 68 l 506 0 l 279 0 l 291 68 l 362 68 z"},"h":{"x_min":0,"x_max":584,"ha":584,"o":"m 400 297 q 402 309 404 321 q 405 333 405 343 q 405 370 388 385 q 371 400 340 400 q 305 400 265 384 q 225 369 178 337 l 130 68 l 201 68 l 189 0 l -37 0 l -25 68 l 46 68 l 149 652 l 78 652 l 90 720 l 245 720 l 191 407 q 236 439 280 455 q 323 470 365 470 q 425 470 458 440 q 491 411 491 357 q 491 346 489 330 q 487 315 484 298 l 444 68 l 514 68 l 502 0 l 275 0 l 287 68 l 359 68 z"},"z":{"x_min":0,"x_max":477,"ha":477,"o":"m 4 0 l 10 68 l 314 390 l 120 390 l 104 306 l 29 306 l 56 458 l 414 458 l 409 390 l 105 68 l 312 68 l 331 164 l 405 164 l 376 0 z"},"B":{"x_min":0,"x_max":560,"ha":560,"o":"m -36 0 l -24 71 l 54 71 l 156 649 l 77 649 l 90 720 l 288 720 q 368 720 403 716 q 438 711 461 700 q 504 680 527 641 q 550 602 550 548 q 550 481 509 439 q 469 397 389 381 q 450 365 484 321 q 518 276 518 212 q 518 169 503 131 q 488 93 460 64 q 426 30 376 15 q 325 0 233 0 z m 250 649 l 207 416 l 278 416 q 366 416 412 449 q 458 481 458 544 q 458 598 426 624 q 394 649 325 649 z m 148 71 l 221 71 q 280 71 310 77 q 339 83 362 98 q 392 117 407 148 q 423 180 423 220 q 423 284 383 317 q 344 350 267 350 l 197 350 z"},"K":{"x_min":0,"x_max":630,"ha":630,"o":"m 148 71 l 227 71 l 215 0 l -36 0 l -24 71 l 54 71 l 156 649 l 77 649 l 90 720 l 341 720 l 329 649 l 250 649 l 202 387 l 480 649 l 406 649 l 419 720 l 665 720 l 653 649 l 595 649 l 297 371 l 505 71 l 575 71 l 562 0 l 309 0 l 321 71 l 396 71 l 199 368 z"},"R":{"x_min":0,"x_max":647,"ha":647,"o":"m 148 71 l 227 71 l 215 0 l -36 0 l -24 71 l 54 71 l 156 649 l 77 649 l 90 720 l 322 720 q 411 720 450 715 q 489 709 516 697 q 559 677 581 639 q 603 601 603 547 q 603 484 566 440 q 530 396 460 375 q 494 355 509 331 q 524 307 524 272 q 524 262 522 247 q 521 233 517 212 l 492 71 l 567 71 l 555 0 l 386 0 l 424 223 q 427 243 429 254 q 430 266 430 271 q 430 311 406 327 q 381 343 312 343 l 197 343 z m 209 414 l 303 414 q 362 414 393 419 q 423 425 445 437 q 476 455 494 484 q 512 514 512 547 q 512 602 476 625 q 439 649 350 649 l 251 649 z"},"T":{"x_min":0,"x_max":549,"ha":549,"o":"m 347 71 l 335 0 l 83 0 l 96 71 l 175 71 l 278 649 l 153 649 l 129 519 l 46 519 l 82 720 l 594 720 l 559 519 l 476 519 l 499 649 l 372 649 l 269 71 z"},"P":{"x_min":0,"x_max":575,"ha":575,"o":"m 250 649 l 194 341 l 264 341 q 361 341 414 386 q 468 432 468 514 q 468 582 429 615 q 390 649 311 649 z m 148 71 l 239 71 l 226 0 l -36 0 l -24 71 l 54 71 l 156 649 l 77 649 l 90 720 l 295 720 q 427 720 497 666 q 566 612 566 509 q 566 397 490 335 q 415 274 276 274 l 182 274 z"},"|":{"x_min":0,"x_max":500,"ha":500,"o":"m 281 764 l 281 -236 l 219 -236 l 219 764 z"},"t":{"x_min":0,"x_max":286,"ha":286,"o":"m 213 616 l 185 458 l 272 458 l 260 390 l 173 390 l 129 141 l 128 139 q 124 108 124 100 q 124 81 137 73 q 150 65 182 65 q 186 65 193 65 q 200 66 204 66 l 192 0 l 189 0 q 160 -2 149 -2 q 85 -2 60 13 q 34 28 34 64 q 34 75 35 86 q 37 98 39 110 l 89 390 l 13 390 l 25 458 l 101 458 l 128 616 z"},"M":{"x_min":0,"x_max":853,"ha":853,"o":"m 140 71 l 214 71 l 202 0 l -36 0 l -24 71 l 54 71 l 156 649 l 77 649 l 90 720 l 301 720 l 395 214 l 674 720 l 885 720 l 873 649 l 794 649 l 692 71 l 771 71 l 758 0 l 520 0 l 533 71 l 606 71 l 705 620 l 395 63 l 349 63 l 234 634 z"},"g":{"x_min":0,"x_max":600,"ha":600,"o":"m 427 380 l 440 458 l 595 458 l 585 390 l 515 390 l 457 68 q 455 58 452 38 q 430 -83 403 -119 q 369 -165 322 -187 q 274 -208 206 -208 q 122 -208 68 -170 q 14 -132 3 -65 l 88 -65 q 102 -101 131 -119 q 161 -137 207 -137 q 283 -137 321 -93 q 358 -49 370 54 q 335 22 295 6 q 254 -10 209 -10 q 118 -10 61 50 q 3 110 3 206 q 3 318 74 395 q 146 471 249 471 q 306 471 351 448 q 396 425 427 380 z m 92 206 q 92 143 131 103 q 171 63 233 63 q 307 63 358 118 q 409 173 409 253 q 409 317 368 358 q 326 399 261 399 q 189 399 140 344 q 92 289 92 206 z"},"j":{"x_min":0,"x_max":256,"ha":256,"o":"m 82 572 l 98 662 l 219 662 l 204 572 z m 102 -44 q 85 -138 52 -174 q 18 -210 -49 -210 q -62 -210 -94 -207 q -98 -206 -100 -206 l -85 -126 q -84 -126 -82 -126 q -60 -130 -50 -130 q -20 -130 -5 -112 q 9 -94 20 -28 l 93 390 l 23 390 l 35 458 l 190 458 z"},"i":{"x_min":0,"x_max":278,"ha":278,"o":"m 95 572 l 111 662 l 232 662 l 217 572 z m 134 68 l 208 68 l 196 0 l -33 0 l -21 68 l 49 68 l 106 390 l 36 390 l 48 458 l 203 458 z"},"y":{"x_min":0,"x_max":534,"ha":534,"o":"m -32 -209 l -21 -140 l 52 -140 l 151 13 l 61 390 l -13 390 l -1 458 l 223 458 l 211 390 l 140 390 l 208 100 l 393 390 l 315 390 l 327 458 l 546 458 l 534 390 l 473 390 l 133 -140 l 209 -140 l 198 -209 z"},"@":{"x_min":0,"x_max":1000,"ha":1000,"o":"m 631 412 l 659 471 l 713 471 l 644 194 q 641 182 640 172 q 638 163 638 155 q 638 133 652 122 q 665 111 692 111 q 714 111 741 123 q 768 134 791 154 q 834 191 859 250 q 884 309 884 374 q 884 504 788 583 q 693 662 535 662 q 453 662 383 637 q 312 611 256 562 q 188 502 153 424 q 118 346 118 251 q 118 167 148 103 q 177 39 239 -10 q 288 -49 356 -71 q 424 -92 500 -92 q 584 -92 663 -68 q 743 -44 808 0 l 830 -32 q 758 -85 677 -113 q 596 -140 508 -140 q 415 -140 338 -117 q 261 -95 203 -50 q 128 7 92 83 q 55 159 55 255 q 55 334 80 406 q 104 477 153 537 q 224 623 323 667 q 423 712 545 712 q 625 712 697 691 q 768 669 818 630 q 881 582 913 518 q 946 454 946 380 q 946 297 915 229 q 885 161 826 114 q 792 87 754 73 q 715 59 674 59 q 625 59 601 78 q 577 97 577 135 q 577 136 578 140 q 578 144 578 146 q 553 104 516 81 q 479 59 433 59 q 358 59 319 101 q 280 142 280 221 q 280 333 347 411 q 414 489 509 489 q 553 489 584 469 q 614 450 631 412 z m 587 231 l 616 349 q 608 393 581 417 q 554 442 515 442 q 444 442 396 378 q 348 313 348 218 q 348 164 373 135 q 398 106 444 106 q 494 106 533 140 q 573 175 587 231 z"},".":{"x_min":0,"x_max":259,"ha":259,"o":"m 86 -12 q 58 -12 39 6 q 21 25 21 53 q 21 82 39 100 q 58 119 86 119 q 114 119 133 100 q 152 81 152 53 q 152 26 133 7 q 114 -12 86 -12 z"},"p":{"x_min":0,"x_max":600,"ha":600,"o":"m 464 253 q 464 316 425 356 q 385 396 323 396 q 249 396 198 341 q 146 286 146 206 q 146 142 188 101 q 229 60 295 60 q 367 60 416 115 q 464 170 464 253 z m 99 390 l 28 390 l 41 458 l 196 458 l 187 411 q 223 439 263 454 q 304 469 347 469 q 437 469 494 409 q 552 349 552 253 q 552 141 481 65 q 411 -11 307 -11 q 250 -11 205 12 q 160 35 129 79 l 91 -140 l 166 -140 l 154 -208 l -77 -208 l -65 -140 l 6 -140 z"},"X":{"x_min":0,"x_max":609,"ha":609,"o":"m 126 71 l 209 71 l 197 0 l -38 0 l -24 71 l 25 71 l 257 359 l 111 649 l 49 649 l 62 720 l 300 720 l 286 649 l 210 649 l 316 430 l 492 649 l 404 649 l 418 720 l 652 720 l 638 649 l 589 649 l 355 356 l 499 71 l 559 71 l 546 0 l 311 0 l 325 71 l 399 71 l 298 286 z"},"*":{"x_min":0,"x_max":500,"ha":500,"o":"m 248 734 l 319 734 l 312 605 l 431 658 l 456 591 l 325 550 l 419 458 l 365 412 l 281 513 l 198 412 l 144 458 l 238 550 l 106 591 l 131 658 l 253 605 z"},"Y":{"x_min":0,"x_max":611,"ha":611,"o":"m 517 649 l 438 649 l 450 720 l 690 720 l 678 649 l 613 649 l 357 331 l 311 71 l 393 71 l 380 0 l 129 0 l 142 71 l 218 71 l 266 344 l 108 649 l 34 649 l 46 720 l 291 720 l 279 649 l 207 649 l 325 410 z"},"c":{"x_min":0,"x_max":498,"ha":498,"o":"m 379 119 l 418 72 q 375 30 327 9 q 278 -12 224 -12 q 124 -12 63 50 q 3 112 3 214 q 3 256 15 295 q 28 334 52 368 q 88 417 137 444 q 186 470 242 470 q 292 470 330 451 q 368 432 389 397 l 397 458 l 463 458 l 434 291 l 378 291 q 374 341 338 372 q 302 403 250 403 q 182 403 135 348 q 88 293 88 213 q 88 145 128 101 q 168 57 231 57 q 268 57 304 72 q 341 87 379 119 z"},"!":{"x_min":0,"x_max":331,"ha":331,"o":"m 118 -12 q 90 -12 71 6 q 52 25 52 53 q 52 82 71 100 q 89 119 118 119 q 146 119 165 100 q 184 81 184 53 q 184 26 165 7 q 146 -12 118 -12 z m 97 178 l 173 720 l 280 720 l 167 178 z"},"/":{"x_min":0,"x_max":306,"ha":306,"o":"m 297 734 l 52 -93 l -4 -93 l 241 734 z"},"[":{"x_min":0,"x_max":333,"ha":333,"o":"m 23 -89 l 166 720 l 378 720 l 366 649 l 237 649 l 120 -19 l 248 -19 l 236 -89 z"},"6":{"x_min":0,"x_max":519,"ha":519,"o":"m 43 279 l 78 471 l 79 478 q 97 580 129 627 q 158 669 204 692 q 250 715 306 715 q 390 715 441 665 q 493 614 493 532 q 493 522 493 517 q 493 513 492 508 l 417 508 l 417 517 q 417 576 388 607 q 360 639 306 639 q 246 639 212 603 q 179 566 166 486 l 149 383 q 182 401 210 409 q 239 418 267 418 q 349 418 402 362 q 455 305 455 217 q 455 113 394 50 q 333 -14 232 -14 q 144 -14 90 40 q 35 94 35 182 q 35 210 37 234 q 39 257 43 279 z m 241 61 q 295 61 332 105 q 369 149 369 217 q 369 277 337 312 q 305 348 252 348 q 192 348 156 304 q 120 261 120 188 q 120 130 153 96 q 186 61 241 61 z"},"r":{"x_min":0,"x_max":363,"ha":363,"o":"m 188 369 q 215 419 254 445 q 293 470 343 470 q 351 470 354 470 q 358 470 362 469 l 349 396 q 283 395 229 346 q 175 298 163 232 l 134 68 l 209 68 l 197 0 l -33 0 l -21 68 l 49 68 l 106 390 l 36 390 l 48 458 l 203 458 z"},"2":{"x_min":0,"x_max":519,"ha":519,"o":"m 423 0 l -3 0 l 12 61 l 340 407 q 367 435 380 467 q 394 499 394 533 q 394 579 363 609 q 332 638 283 638 q 219 638 186 595 q 152 552 149 467 l 69 467 q 69 583 127 648 q 185 714 287 714 q 373 714 427 662 q 481 610 481 529 q 481 480 462 440 q 443 400 397 352 l 124 70 l 355 70 l 377 179 l 458 179 z"},"{":{"x_min":0,"x_max":500,"ha":500,"o":"m 419 659 q 415 659 408 660 q 400 660 397 660 q 338 660 317 637 q 296 614 296 541 l 296 423 q 296 342 275 308 q 253 274 199 259 q 253 244 275 210 q 296 176 296 95 l 296 -23 q 296 -96 317 -118 q 338 -141 400 -141 l 419 -141 l 419 -202 l 402 -202 q 354 -202 324 -196 q 294 -190 274 -177 q 247 -159 236 -128 q 225 -97 225 -24 l 225 95 q 225 169 198 199 q 171 229 106 229 q 103 229 95 229 q 88 228 84 228 l 84 290 q 88 290 95 290 q 103 289 106 289 q 171 289 198 319 q 225 349 225 424 l 225 543 q 225 618 236 648 q 247 679 274 696 q 294 709 324 715 q 353 721 402 721 l 419 721 z"},"9":{"x_min":0,"x_max":519,"ha":519,"o":"m 478 422 l 444 229 l 444 229 q 425 122 392 73 q 363 31 318 8 q 273 -14 216 -14 q 132 -14 80 36 q 29 86 29 168 q 29 178 29 183 q 29 188 30 192 l 105 192 l 105 183 q 105 124 133 93 q 162 61 215 61 q 275 61 307 95 q 339 129 356 215 l 378 325 q 352 304 320 293 q 289 282 255 282 q 173 282 120 339 q 67 396 67 484 q 67 588 128 651 q 188 714 289 714 q 377 714 432 660 q 487 607 487 519 q 487 494 485 470 q 482 446 478 422 z m 280 640 q 226 640 189 596 q 152 551 152 484 q 152 424 184 389 q 216 353 269 353 q 329 353 365 396 q 402 439 402 512 q 402 570 368 605 q 335 640 280 640 z"}," ":{"x_min":0,"x_max":259,"ha":259,"o":""},"I":{"x_min":0,"x_max":304,"ha":304,"o":"m 148 71 l 227 71 l 215 0 l -36 0 l -24 71 l 54 71 l 156 649 l 77 649 l 90 720 l 341 720 l 329 649 l 250 649 z"},"H":{"x_min":0,"x_max":729,"ha":729,"o":"m 148 71 l 227 71 l 215 0 l -36 0 l -24 71 l 54 71 l 156 649 l 77 649 l 90 720 l 341 720 l 329 649 l 250 649 l 208 410 l 538 410 l 580 649 l 502 649 l 514 720 l 765 720 l 753 649 l 675 649 l 573 71 l 651 71 l 639 0 l 387 0 l 400 71 l 478 71 l 524 330 l 194 330 z"},"4":{"x_min":0,"x_max":519,"ha":519,"o":"m 299 252 l 359 567 l 106 252 z m 419 0 l 173 0 l 185 68 l 266 68 l 288 184 l 19 184 l 29 252 l 382 701 l 459 701 l 379 252 l 464 252 l 452 184 l 368 184 l 347 68 l 431 68 z"},"~":{"x_min":0,"x_max":833,"ha":833,"o":"m 747 306 q 698 271 651 253 q 604 236 558 236 q 537 236 514 240 q 491 245 465 253 q 450 258 422 268 q 324 303 275 303 q 234 303 190 285 q 146 267 87 225 l 87 290 q 138 326 186 343 q 233 361 276 361 q 303 361 333 355 q 362 349 418 329 q 425 327 439 321 q 517 293 559 293 q 600 293 644 311 q 688 329 747 370 z"},"D":{"x_min":0,"x_max":736,"ha":736,"o":"m 342 649 l 250 649 l 148 71 l 237 71 q 338 71 390 82 q 442 94 479 120 q 541 164 575 242 q 610 320 610 415 q 610 534 544 592 q 479 649 342 649 z m -36 0 l -24 71 l 54 71 l 156 649 l 77 649 l 90 720 l 341 720 q 528 720 617 645 q 705 569 705 409 q 705 320 677 241 q 648 162 595 104 q 543 48 469 24 q 394 0 259 0 z"},"^":{"x_min":0,"x_max":1000,"ha":1000,"o":"m 539 712 l 793 440 l 716 440 l 500 654 l 284 440 l 206 440 l 460 712 z"},"0":{"x_min":0,"x_max":519,"ha":519,"o":"m 487 440 l 456 262 l 456 259 q 433 127 408 88 q 374 34 327 10 q 281 -14 209 -14 q 121 -14 72 34 q 22 82 22 167 q 22 187 25 211 q 27 236 32 262 l 65 440 q 81 524 91 559 q 102 593 114 614 q 147 667 193 691 q 239 715 309 715 q 397 715 447 667 q 496 618 496 532 q 496 513 494 490 q 492 466 487 440 z m 365 243 l 400 443 q 404 471 407 492 q 409 513 409 528 q 409 582 382 609 q 354 636 300 636 q 260 636 232 621 q 205 605 186 572 q 174 551 157 460 l 157 459 l 118 258 q 114 234 111 213 q 109 191 109 173 q 109 120 136 92 q 164 65 218 65 q 283 65 315 101 q 346 137 365 243 z"},"F":{"x_min":0,"x_max":530,"ha":530,"o":"m -36 0 l -24 71 l 54 71 l 156 649 l 77 649 l 90 720 l 575 720 l 548 529 l 468 529 l 485 649 l 250 649 l 210 417 l 407 417 l 395 347 l 198 347 l 148 71 l 241 71 l 229 0 z"},"`":{"x_min":0,"x_max":500,"ha":500,"o":"m 328 524 l 279 524 l 139 694 l 221 694 z"},"k":{"x_min":0,"x_max":539,"ha":539,"o":"m 164 257 l 349 390 l 286 390 l 299 458 l 526 458 l 514 390 l 452 390 l 249 245 l 418 68 l 472 68 l 459 0 l 255 0 l 265 68 l 319 68 l 161 237 l 130 68 l 201 68 l 189 0 l -37 0 l -25 68 l 46 68 l 149 652 l 78 652 l 90 720 l 245 720 z"},"u":{"x_min":0,"x_max":583,"ha":583,"o":"m 136 161 q 136 159 135 154 q 130 125 130 115 q 130 88 147 73 q 165 58 196 58 q 227 58 256 67 q 285 77 310 94 q 358 127 372 203 q 373 206 373 208 l 405 390 l 335 390 l 347 458 l 502 458 l 433 68 l 504 68 l 492 0 l 337 0 l 345 52 q 299 20 256 4 q 213 -12 171 -12 q 111 -12 77 18 q 44 47 44 101 q 44 113 46 129 q 48 145 51 161 l 92 390 l 22 390 l 34 458 l 188 458 z"},"]":{"x_min":0,"x_max":333,"ha":333,"o":"m 302 720 l 159 -89 l -54 -89 l -41 -19 l 87 -19 l 205 649 l 76 649 l 89 720 z"},"U":{"x_min":0,"x_max":727,"ha":727,"o":"m 342 720 l 329 649 l 250 649 l 185 284 q 182 265 180 248 q 178 230 178 214 q 178 147 218 108 q 257 69 325 69 q 403 69 449 116 q 495 164 512 263 l 580 649 l 502 649 l 514 720 l 765 720 l 753 649 l 675 649 l 605 258 q 581 124 509 55 q 437 -13 319 -13 q 213 -13 149 46 q 85 105 85 203 q 85 242 97 311 q 98 316 98 319 l 156 649 l 78 649 l 90 720 z"},"o":{"x_min":0,"x_max":557,"ha":557,"o":"m 241 57 q 313 57 366 114 q 419 170 419 248 q 419 316 377 359 q 335 402 268 402 q 194 402 143 346 q 91 290 91 210 q 91 142 133 100 q 174 57 241 57 z m 240 -11 q 135 -11 69 50 q 3 110 3 206 q 3 319 79 395 q 155 470 269 470 q 375 470 440 409 q 506 348 506 252 q 506 138 430 63 q 355 -11 240 -11 z"},"N":{"x_min":0,"x_max":683,"ha":683,"o":"m 140 71 l 219 71 l 206 0 l -36 0 l -24 71 l 54 71 l 156 649 l 77 649 l 90 720 l 253 720 l 456 170 l 543 649 l 464 649 l 477 720 l 720 720 l 707 649 l 629 649 l 512 -14 l 440 -14 l 228 561 z"},"+":{"x_min":0,"x_max":833,"ha":833,"o":"m 446 596 l 446 327 l 709 327 l 709 270 l 446 270 l 446 0 l 388 0 l 388 270 l 124 270 l 124 327 l 388 327 l 388 596 z"},"G":{"x_min":0,"x_max":819,"ha":819,"o":"m 597 0 l 615 89 q 565 39 502 12 q 439 -14 368 -14 q 307 -14 250 6 q 194 26 148 64 q 92 110 61 178 q 31 246 31 327 q 31 409 58 481 q 86 554 138 610 q 194 670 273 702 q 352 735 441 735 q 517 735 574 711 q 631 688 673 639 l 687 720 l 767 720 l 728 478 l 661 478 q 644 563 586 609 q 529 655 438 655 q 384 655 335 638 q 286 621 246 589 q 188 542 158 476 q 127 411 127 334 q 127 213 197 139 q 267 65 380 65 q 464 65 532 112 q 601 159 648 249 l 465 249 l 478 326 l 810 326 l 796 249 l 723 249 l 675 0 z"},"q":{"x_min":0,"x_max":600,"ha":600,"o":"m 421 -141 l 492 -141 l 480 -208 l 249 -208 l 261 -141 l 335 -141 l 368 47 q 332 18 292 3 q 252 -12 209 -12 q 118 -12 61 49 q 3 110 3 206 q 3 258 22 307 q 42 355 78 392 q 115 430 160 450 q 205 469 256 469 q 313 469 355 447 q 398 425 427 381 l 441 459 l 597 459 l 585 391 l 513 391 z m 92 205 q 92 142 131 102 q 171 62 233 62 q 307 62 358 117 q 409 172 409 252 q 409 315 368 356 q 327 398 265 398 q 191 398 142 343 q 92 288 92 205 z"},"d":{"x_min":0,"x_max":600,"ha":600,"o":"m 92 206 q 92 143 131 103 q 171 63 233 63 q 307 63 358 118 q 409 173 409 253 q 409 317 368 358 q 326 399 261 399 q 189 399 140 344 q 92 289 92 206 z m 396 720 l 572 720 l 457 68 l 528 68 l 516 0 l 360 0 l 370 54 q 335 22 295 6 q 254 -10 209 -10 q 118 -10 61 50 q 3 110 3 206 q 3 318 74 395 q 146 471 249 471 q 306 471 351 448 q 396 425 427 380 l 475 652 l 384 652 z"},"1":{"x_min":0,"x_max":519,"ha":519,"o":"m 368 701 l 259 68 l 345 68 l 333 0 l 77 0 l 89 68 l 173 68 l 272 633 l 180 633 l 192 701 z"},"5":{"x_min":0,"x_max":519,"ha":519,"o":"m 25 223 l 104 223 q 102 213 101 202 q 100 192 100 181 q 100 125 131 92 q 162 60 216 60 q 281 60 323 109 q 365 157 365 234 q 365 308 326 343 q 287 379 205 379 q 185 379 161 377 q 138 375 108 371 l 175 702 l 475 702 l 461 626 l 238 626 l 201 443 q 217 444 225 445 q 232 445 239 445 q 341 445 396 390 q 452 334 452 233 q 452 126 386 56 q 321 -14 220 -14 q 131 -14 77 40 q 22 94 22 182 q 22 191 23 202 q 23 212 25 223 z"}}}
